<svg id="Layer_1" data-name="Layer 1" xmlns="http://www.w3.org/2000/svg" viewBox="0 0 167.28 136.66"><defs><style>.cls-1{fill:#7047f5;}.cls-2{fill:#9477f5;}.cls-3{fill:#825ff5;}.cls-4{fill:#f58a78;}</style></defs><path class="cls-1" d="M346.13,188.42a4,4,0,0,0-2.51,5.07l2.25,6.67a4,4,0,0,0,5.07,2.51l18.16-6.12c-3.5-3.74-6.44-8.48-9.67-12.61Z" transform="translate(-269.11 -171.54)"/><path class="cls-2" d="M305.85,269.72l2.25,6.67a4,4,0,0,0,5.07,2.51L348.34,267a4,4,0,0,1,5.07,2.51l11.87,35.17a4,4,0,0,0,5.06,2.51L377,305a4,4,0,0,0,2.51-5.07l-16.68-49.42a4,4,0,0,0-5.06-2.51l-49.43,16.67A4,4,0,0,0,305.85,269.72Z" transform="translate(-269.11 -171.54)"/><path class="cls-3" d="M324.74,231.6l2.25,6.68a4,4,0,0,0,5.07,2.51l35.17-11.87a4,4,0,0,1,5.07,2.51l11.86,35.18a4,4,0,0,0,5.07,2.51l6.67-2.25a4,4,0,0,0,2.51-5.07l-16.67-49.43a4,4,0,0,0-5.07-2.51l-49.42,16.68A4,4,0,0,0,324.74,231.6Z" transform="translate(-269.11 -171.54)"/><path class="cls-4" d="M398.5,202.5l35.17-11.87a4,4,0,0,0,2.52-5.06l-2.26-6.68a4,4,0,0,0-5.06-2.51l-39,13.15-14.25,4.8-21.27,7.18a4,4,0,0,1-3.68-.6c-13.73-10.64-31.12-14.64-47.35-9.17-27.54,9.3-41.26,42.35-30.64,73.83s41.56,49.47,69.1,40.18a48.18,48.18,0,0,0,25.74-20.94,4,4,0,0,1,7.17.85h0a4,4,0,0,0,5.07,2.51l6.67-2.25a4,4,0,0,0,2.51-5.06L372.3,231.43a4,4,0,0,0-5.07-2.51L317.81,245.6a4,4,0,0,0-2.51,5.06l2.25,6.68a4,4,0,0,0,5.06,2.51l33.11-11.17a4,4,0,0,1,5.28,3.63c.47,18-8.67,34-24,39.19-19.68,6.63-42.09-7.13-50.05-30.74s1.53-48.13,21.2-54.77c13.41-4.52,28.09.43,38.6,11.52a4,4,0,0,0,4.17,1l12.57-4.24,13.17-4.45a4,4,0,0,1,5.07,2.51l13.14,39,18,53.21a4,4,0,0,0,5.06,2.51l6.68-2.25a4,4,0,0,0,2.51-5.07l-18-53.21-13.14-39A4,4,0,0,1,398.5,202.5Z" transform="translate(-269.11 -171.54)"/><path class="cls-1" d="M417.3,223.68l-16.67-49.42a4,4,0,0,0-5.07-2.51l-36.13,12.19c3.23,4.13,6.17,8.87,9.67,12.61l17-5.74a4,4,0,0,1,5.06,2.51l11.87,35.17a4,4,0,0,0,5.07,2.51l6.67-2.25A4,4,0,0,0,417.3,223.68Z" transform="translate(-269.11 -171.54)"/></svg>