<?xml version="1.0" encoding="utf-8"?>
<!-- Generator: Adobe Illustrator 25.2.1, SVG Export Plug-In . SVG Version: 6.00 Build 0)  -->
<svg version="1.1" id="Layer_1" xmlns="http://www.w3.org/2000/svg" xmlns:xlink="http://www.w3.org/1999/xlink" x="0px" y="0px"
	 viewBox="0 0 252 144" style="enable-background:new 0 0 252 144;" xml:space="preserve">
<style type="text/css">
	.st0{fill:#F58A78;}
	.st1{fill:#9477F5;}
	.st2{fill:#825FF5;}
	.st3{fill:#7047F5;}
</style>
<rect x="136.65" y="83.19" transform="matrix(0.9475 -0.3197 0.3197 0.9475 -28.6439 52.0269)" class="st0" width="15.04" height="60.16"/>
<polygon class="st0" points="122.45,25.36 108.19,30.17 65.44,44.59 70.25,58.84 113,44.42 127.43,87.17 141.68,82.37 127.25,39.61 
	170,25.19 165.2,10.94 "/>
<polygon class="st1" points="37.11,101.77 41.92,116.02 84.67,101.6 99.1,144.35 113.35,139.54 94.12,82.54 "/>
<polygon class="st0" points="46.56,82.71 51.37,96.96 94.12,82.54 108.54,125.29 122.79,120.48 103.56,63.48 "/>
<polygon class="st2" points="56,63.65 60.81,77.9 103.56,63.48 117.98,106.23 132.23,101.42 113,44.42 "/>
<polygon class="st3" points="74.89,25.54 79.69,39.79 122.45,25.36 136.87,68.11 151.12,63.31 131.89,6.31 "/>
<path class="st0" d="M103.41,63.53l-14.27,4.82c0.59,1.37,1.13,2.77,1.62,4.22c7.97,23.61-1.53,48.13-21.2,54.77
	c-19.68,6.64-42.08-7.12-50.05-30.73s1.53-48.13,21.2-54.77c14.14-4.77,29.7,1,40.29,13.39l15.05-5.08
	C81.76,30.03,57.76,20.2,35.89,27.58C8.35,36.87-5.37,69.93,5.25,101.41c10.62,31.48,41.56,49.47,69.11,40.18
	c27.55-9.29,41.27-42.35,30.65-73.83C104.52,66.31,103.97,64.91,103.41,63.53z"/>
</svg>
